<?xml version="1.0" encoding="UTF-8" standalone="no"?>
<!DOCTYPE svg PUBLIC "-//W3C//DTD SVG 1.1//EN"
 "http://www.w3.org/Graphics/SVG/1.1/DTD/svg11.dtd">
<!-- Generated by graphviz version 14.1.2 (0)
 -->
<!-- Title: G Pages: 1 -->
<svg width="1968pt" height="617pt"
 viewBox="0.00 0.00 1968.00 617.00" xmlns="http://www.w3.org/2000/svg" xmlns:xlink="http://www.w3.org/1999/xlink">
<g id="graph0" class="graph" transform="scale(1 1) rotate(0) translate(4 613.44)">
<title>G</title><style>.edge>path:hover{stroke-width:8}</style>
<polygon fill="white" stroke="none" points="-4,4 -4,-613.44 1963.78,-613.44 1963.78,4 -4,4"/>
<!-- datasets -->
<g id="node1" class="node">
<title>datasets</title><style>.edge>path:hover{stroke-width:8}</style>
<ellipse fill="#c24747" stroke="black" cx="977.15" cy="-373.93" rx="35.49" ry="18"/>
<text xml:space="preserve" text-anchor="middle" x="977.15" y="-370.8" font-family="Helvetica,sans-Serif" font-size="10.00" fill="#ffffff">datasets</text>
</g>
<!-- triune_data_dataset -->
<g id="node16" class="node">
<title>triune_data_dataset</title><style>.edge>path:hover{stroke-width:8}</style>
<ellipse fill="#854096" stroke="black" cx="900.15" cy="-134.11" rx="37.3" ry="32.7"/>
<text xml:space="preserve" text-anchor="middle" x="900.15" y="-143.74" font-family="Helvetica,sans-Serif" font-size="10.00" fill="#ffffff">triune.</text>
<text xml:space="preserve" text-anchor="middle" x="900.15" y="-130.99" font-family="Helvetica,sans-Serif" font-size="10.00" fill="#ffffff">data.</text>
<text xml:space="preserve" text-anchor="middle" x="900.15" y="-118.24" font-family="Helvetica,sans-Serif" font-size="10.00" fill="#ffffff">dataset</text>
</g>
<!-- datasets&#45;&gt;triune_data_dataset -->
<g id="edge1" class="edge">
<title>datasets&#45;&gt;triune_data_dataset</title><style>.edge>path:hover{stroke-width:8}</style>
<path fill="none" stroke="black" d="M983.84,-356.17C995.16,-325.3 1015.28,-257.66 998.15,-203.81"/>
<path fill="none" stroke="black" d="M998.15,-202.81C998.11,-202.7 966.13,-180.62 938.72,-161.71"/>
<polygon fill="#c24747" stroke="black" points="940.73,-158.85 930.52,-156.05 936.76,-164.61 940.73,-158.85"/>
</g>
<!-- triune_data_tokenizer -->
<g id="node17" class="node">
<title>triune_data_tokenizer</title><style>.edge>path:hover{stroke-width:8}</style>
<ellipse fill="#783a88" stroke="black" cx="998.15" cy="-134.11" rx="43.13" ry="32.7"/>
<text xml:space="preserve" text-anchor="middle" x="998.15" y="-143.74" font-family="Helvetica,sans-Serif" font-size="10.00" fill="#ffffff">triune.</text>
<text xml:space="preserve" text-anchor="middle" x="998.15" y="-130.99" font-family="Helvetica,sans-Serif" font-size="10.00" fill="#ffffff">data.</text>
<text xml:space="preserve" text-anchor="middle" x="998.15" y="-118.24" font-family="Helvetica,sans-Serif" font-size="10.00" fill="#ffffff">tokenizer</text>
</g>
<!-- datasets&#45;&gt;triune_data_tokenizer -->
<g id="edge2" class="edge">
<title>datasets&#45;&gt;triune_data_tokenizer</title><style>.edge>path:hover{stroke-width:8}</style>
<path fill="none" stroke="black" d="M998.15,-202.81C995.7,-195.13 994.57,-186.69 994.22,-178.47"/>
<polygon fill="#c24747" stroke="black" points="997.72,-178.58 994.19,-168.59 990.72,-178.6 997.72,-178.58"/>
</g>
<!-- tokenizers -->
<g id="node2" class="node">
<title>tokenizers</title><style>.edge>path:hover{stroke-width:8}</style>
<ellipse fill="#c0e722" stroke="black" cx="1517.15" cy="-373.93" rx="40.54" ry="18"/>
<text xml:space="preserve" text-anchor="middle" x="1517.15" y="-370.8" font-family="Helvetica,sans-Serif" font-size="10.00" fill="#000000">tokenizers</text>
</g>
<!-- tokenizers&#45;&gt;triune_data_tokenizer -->
<g id="edge3" class="edge">
<title>tokenizers&#45;&gt;triune_data_tokenizer</title><style>.edge>path:hover{stroke-width:8}</style>
<path fill="none" stroke="black" d="M1494.57,-358.63C1470.78,-341.72 1436.09,-311.08 1431.15,-273.52"/>
</g>
<!-- tokenizers_models -->
<g id="node3" class="node">
<title>tokenizers_models</title><style>.edge>path:hover{stroke-width:8}</style>
<ellipse fill="#9fb83d" stroke="black" cx="1625.15" cy="-373.93" rx="48.97" ry="23.69"/>
<text xml:space="preserve" text-anchor="middle" x="1625.15" y="-377.18" font-family="Helvetica,sans-Serif" font-size="10.00" fill="#000000">tokenizers.</text>
<text xml:space="preserve" text-anchor="middle" x="1625.15" y="-364.43" font-family="Helvetica,sans-Serif" font-size="10.00" fill="#000000">models</text>
</g>
<!-- tokenizers_models&#45;&gt;triune_data_tokenizer -->
<g id="edge4" class="edge">
<title>tokenizers_models&#45;&gt;triune_data_tokenizer</title><style>.edge>path:hover{stroke-width:8}</style>
<path fill="none" stroke="black" d="M1593.66,-355.43C1585.1,-350.75 1575.8,-345.74 1567.15,-341.22 1507.29,-309.98 1439.95,-340.46 1431.15,-273.52"/>
</g>
<!-- tokenizers_pre_tokenizers -->
<g id="node4" class="node">
<title>tokenizers_pre_tokenizers</title><style>.edge>path:hover{stroke-width:8}</style>
<ellipse fill="#9fb83d" stroke="black" cx="1092.15" cy="-373.93" rx="61.7" ry="23.69"/>
<text xml:space="preserve" text-anchor="middle" x="1092.15" y="-377.18" font-family="Helvetica,sans-Serif" font-size="10.00" fill="#000000">tokenizers.</text>
<text xml:space="preserve" text-anchor="middle" x="1092.15" y="-364.43" font-family="Helvetica,sans-Serif" font-size="10.00" fill="#000000">pre_tokenizers</text>
</g>
<!-- tokenizers_pre_tokenizers&#45;&gt;triune_data_tokenizer -->
<g id="edge5" class="edge">
<title>tokenizers_pre_tokenizers&#45;&gt;triune_data_tokenizer</title><style>.edge>path:hover{stroke-width:8}</style>
<path fill="none" stroke="black" d="M1129.61,-354.75C1140.3,-349.96 1152.05,-345.07 1163.15,-341.22 1279.23,-300.98 1398.5,-391.95 1431.15,-273.52"/>
<path fill="none" stroke="black" d="M1431.15,-271.52C1452.22,-195.06 1172.55,-154.51 1051.97,-140.67"/>
<polygon fill="#9fb83d" stroke="black" points="1052.65,-137.22 1042.32,-139.58 1051.86,-144.18 1052.65,-137.22"/>
</g>
<!-- tokenizers_processors -->
<g id="node5" class="node">
<title>tokenizers_processors</title><style>.edge>path:hover{stroke-width:8}</style>
<ellipse fill="#9fb83d" stroke="black" cx="1221.15" cy="-373.93" rx="48.97" ry="23.69"/>
<text xml:space="preserve" text-anchor="middle" x="1221.15" y="-377.18" font-family="Helvetica,sans-Serif" font-size="10.00" fill="#000000">tokenizers.</text>
<text xml:space="preserve" text-anchor="middle" x="1221.15" y="-364.43" font-family="Helvetica,sans-Serif" font-size="10.00" fill="#000000">processors</text>
</g>
<!-- tokenizers_processors&#45;&gt;triune_data_tokenizer -->
<g id="edge6" class="edge">
<title>tokenizers_processors&#45;&gt;triune_data_tokenizer</title><style>.edge>path:hover{stroke-width:8}</style>
<path fill="none" stroke="black" d="M1252.21,-355.34C1260.86,-350.61 1270.3,-345.6 1279.15,-341.22 1345.43,-308.41 1440.79,-346.84 1431.15,-273.52"/>
</g>
<!-- tokenizers_trainers -->
<g id="node6" class="node">
<title>tokenizers_trainers</title><style>.edge>path:hover{stroke-width:8}</style>
<ellipse fill="#9fb83d" stroke="black" cx="1337.15" cy="-373.93" rx="48.97" ry="23.69"/>
<text xml:space="preserve" text-anchor="middle" x="1337.15" y="-377.18" font-family="Helvetica,sans-Serif" font-size="10.00" fill="#000000">tokenizers.</text>
<text xml:space="preserve" text-anchor="middle" x="1337.15" y="-364.43" font-family="Helvetica,sans-Serif" font-size="10.00" fill="#000000">trainers</text>
</g>
<!-- tokenizers_trainers&#45;&gt;triune_data_tokenizer -->
<g id="edge7" class="edge">
<title>tokenizers_trainers&#45;&gt;triune_data_tokenizer</title><style>.edge>path:hover{stroke-width:8}</style>
<path fill="none" stroke="black" d="M1370.91,-356.25C1399.79,-339.32 1435.99,-310.37 1431.15,-273.52"/>
</g>
<!-- torch -->
<g id="node7" class="node">
<title>torch</title><style>.edge>path:hover{stroke-width:8}</style>
<polygon fill="blue" stroke="black" points="725.15,-391.93 671.15,-391.93 671.15,-355.93 725.15,-355.93 725.15,-391.93"/>
<text xml:space="preserve" text-anchor="middle" x="698.15" y="-370.8" font-family="Helvetica,sans-Serif" font-size="10.00" fill="white">torch</text>
</g>
<!-- triune_data_dataloader -->
<g id="node15" class="node">
<title>triune_data_dataloader</title><style>.edge>path:hover{stroke-width:8}</style>
<ellipse fill="#9e4cb3" stroke="black" cx="681.15" cy="-134.11" rx="48.44" ry="32.7"/>
<text xml:space="preserve" text-anchor="middle" x="681.15" y="-143.74" font-family="Helvetica,sans-Serif" font-size="10.00" fill="#ffffff">triune.</text>
<text xml:space="preserve" text-anchor="middle" x="681.15" y="-130.99" font-family="Helvetica,sans-Serif" font-size="10.00" fill="#ffffff">data.</text>
<text xml:space="preserve" text-anchor="middle" x="681.15" y="-118.24" font-family="Helvetica,sans-Serif" font-size="10.00" fill="#ffffff">dataloader</text>
</g>
<!-- torch&#45;&gt;triune_data_dataloader -->
<g id="edge8" class="edge">
<title>torch&#45;&gt;triune_data_dataloader</title><style>.edge>path:hover{stroke-width:8}</style>
<path fill="none" stroke="black" d="M681.15,-202.81C678.99,-195.04 677.99,-186.57 677.68,-178.33"/>
<polygon fill="blue" stroke="black" points="681.18,-178.44 677.66,-168.45 674.18,-178.46 681.18,-178.44"/>
</g>
<!-- torch&#45;&gt;triune_data_dataset -->
<g id="edge9" class="edge">
<title>torch&#45;&gt;triune_data_dataset</title><style>.edge>path:hover{stroke-width:8}</style>
<path fill="none" stroke="black" d="M681.15,-202.81C670.64,-164.98 818.05,-182.26 854.15,-166.81 857.16,-165.53 860.17,-164.03 863.14,-162.4"/>
<polygon fill="blue" stroke="black" points="864.93,-165.4 871.67,-157.23 861.31,-159.41 864.93,-165.4"/>
</g>
<!-- triune_optim_centroid -->
<g id="node24" class="node">
<title>triune_optim_centroid</title><style>.edge>path:hover{stroke-width:8}</style>
<ellipse fill="#922bac" stroke="black" cx="283.15" cy="-134.11" rx="39.42" ry="32.7"/>
<text xml:space="preserve" text-anchor="middle" x="283.15" y="-143.74" font-family="Helvetica,sans-Serif" font-size="10.00" fill="#ffffff">triune.</text>
<text xml:space="preserve" text-anchor="middle" x="283.15" y="-130.99" font-family="Helvetica,sans-Serif" font-size="10.00" fill="#ffffff">optim.</text>
<text xml:space="preserve" text-anchor="middle" x="283.15" y="-118.24" font-family="Helvetica,sans-Serif" font-size="10.00" fill="#ffffff">centroid</text>
</g>
<!-- torch&#45;&gt;triune_optim_centroid -->
<g id="edge10" class="edge">
<title>torch&#45;&gt;triune_optim_centroid</title><style>.edge>path:hover{stroke-width:8}</style>
<path fill="none" stroke="black" d="M696.92,-355.61C695.1,-335.43 690.8,-301.31 681.15,-273.52"/>
<path fill="none" stroke="black" d="M681.15,-271.52C627.9,-118.13 478.24,-235.56 331.15,-166.81 328.22,-165.45 325.27,-163.92 322.34,-162.29"/>
<polygon fill="blue" stroke="black" points="324.26,-159.36 313.87,-157.25 320.68,-165.37 324.26,-159.36"/>
</g>
<!-- triune_trainer_checkpoint -->
<g id="node29" class="node">
<title>triune_trainer_checkpoint</title><style>.edge>path:hover{stroke-width:8}</style>
<ellipse fill="#9e4cb3" stroke="black" cx="796.15" cy="-134.11" rx="48.97" ry="32.7"/>
<text xml:space="preserve" text-anchor="middle" x="796.15" y="-143.74" font-family="Helvetica,sans-Serif" font-size="10.00" fill="#ffffff">triune.</text>
<text xml:space="preserve" text-anchor="middle" x="796.15" y="-130.99" font-family="Helvetica,sans-Serif" font-size="10.00" fill="#ffffff">trainer.</text>
<text xml:space="preserve" text-anchor="middle" x="796.15" y="-118.24" font-family="Helvetica,sans-Serif" font-size="10.00" fill="#ffffff">checkpoint</text>
</g>
<!-- torch&#45;&gt;triune_trainer_checkpoint -->
<g id="edge11" class="edge">
<title>torch&#45;&gt;triune_trainer_checkpoint</title><style>.edge>path:hover{stroke-width:8}</style>
<path fill="none" stroke="black" d="M681.15,-202.81C680.59,-200.8 717.32,-179.47 749.42,-161.29"/>
<polygon fill="blue" stroke="black" points="750.88,-164.48 757.87,-156.52 747.44,-158.39 750.88,-164.48"/>
</g>
<!-- triune_trainer_evaluation -->
<g id="node31" class="node">
<title>triune_trainer_evaluation</title><style>.edge>path:hover{stroke-width:8}</style>
<ellipse fill="#9246a4" stroke="black" cx="388.15" cy="-134.11" rx="47.91" ry="32.7"/>
<text xml:space="preserve" text-anchor="middle" x="388.15" y="-143.74" font-family="Helvetica,sans-Serif" font-size="10.00" fill="#ffffff">triune.</text>
<text xml:space="preserve" text-anchor="middle" x="388.15" y="-130.99" font-family="Helvetica,sans-Serif" font-size="10.00" fill="#ffffff">trainer.</text>
<text xml:space="preserve" text-anchor="middle" x="388.15" y="-118.24" font-family="Helvetica,sans-Serif" font-size="10.00" fill="#ffffff">evaluation</text>
</g>
<!-- torch&#45;&gt;triune_trainer_evaluation -->
<g id="edge12" class="edge">
<title>torch&#45;&gt;triune_trainer_evaluation</title><style>.edge>path:hover{stroke-width:8}</style>
<path fill="none" stroke="black" d="M681.15,-271.52C671.28,-243.09 689.2,-232.81 681.15,-203.81"/>
<path fill="none" stroke="black" d="M681.15,-202.81C666.95,-151.7 495.35,-183.98 445.15,-166.81 441.05,-165.41 436.9,-163.72 432.81,-161.86"/>
<polygon fill="blue" stroke="black" points="434.69,-158.88 424.17,-157.61 431.6,-165.16 434.69,-158.88"/>
</g>
<!-- triune_trainer_metrics -->
<g id="node32" class="node">
<title>triune_trainer_metrics</title><style>.edge>path:hover{stroke-width:8}</style>
<ellipse fill="#9e4cb3" stroke="black" cx="491.15" cy="-134.11" rx="37.3" ry="32.7"/>
<text xml:space="preserve" text-anchor="middle" x="491.15" y="-143.74" font-family="Helvetica,sans-Serif" font-size="10.00" fill="#ffffff">triune.</text>
<text xml:space="preserve" text-anchor="middle" x="491.15" y="-130.99" font-family="Helvetica,sans-Serif" font-size="10.00" fill="#ffffff">trainer.</text>
<text xml:space="preserve" text-anchor="middle" x="491.15" y="-118.24" font-family="Helvetica,sans-Serif" font-size="10.00" fill="#ffffff">metrics</text>
</g>
<!-- torch&#45;&gt;triune_trainer_metrics -->
<g id="edge13" class="edge">
<title>torch&#45;&gt;triune_trainer_metrics</title><style>.edge>path:hover{stroke-width:8}</style>
<path fill="none" stroke="black" d="M681.15,-202.81C663.49,-139.25 597.27,-193.97 537.15,-166.81 534.25,-165.5 531.34,-164.01 528.46,-162.4"/>
<polygon fill="blue" stroke="black" points="530.56,-159.58 520.2,-157.36 526.92,-165.56 530.56,-159.58"/>
</g>
<!-- triune_utils_device -->
<g id="node34" class="node">
<title>triune_utils_device</title><style>.edge>path:hover{stroke-width:8}</style>
<ellipse fill="#9e4cb3" stroke="black" cx="580.15" cy="-134.11" rx="34.12" ry="32.7"/>
<text xml:space="preserve" text-anchor="middle" x="580.15" y="-143.74" font-family="Helvetica,sans-Serif" font-size="10.00" fill="#ffffff">triune.</text>
<text xml:space="preserve" text-anchor="middle" x="580.15" y="-130.99" font-family="Helvetica,sans-Serif" font-size="10.00" fill="#ffffff">utils.</text>
<text xml:space="preserve" text-anchor="middle" x="580.15" y="-118.24" font-family="Helvetica,sans-Serif" font-size="10.00" fill="#ffffff">device</text>
</g>
<!-- torch&#45;&gt;triune_utils_device -->
<g id="edge14" class="edge">
<title>torch&#45;&gt;triune_utils_device</title><style>.edge>path:hover{stroke-width:8}</style>
<path fill="none" stroke="black" d="M681.15,-202.81C673.13,-173.95 648.98,-183.58 624.15,-166.81 621.52,-165.04 618.81,-163.18 616.1,-161.29"/>
<polygon fill="blue" stroke="black" points="618.38,-158.61 608.19,-155.7 614.34,-164.33 618.38,-158.61"/>
</g>
<!-- torch_amp -->
<g id="node8" class="node">
<title>torch_amp</title><style>.edge>path:hover{stroke-width:8}</style>
<ellipse fill="#47c278" stroke="black" cx="663.15" cy="-475.33" rx="40.08" ry="18"/>
<text xml:space="preserve" text-anchor="middle" x="663.15" y="-472.21" font-family="Helvetica,sans-Serif" font-size="10.00" fill="#000000">torch.amp</text>
</g>
<!-- torch_amp&#45;&gt;torch -->
<g id="edge15" class="edge">
<title>torch_amp&#45;&gt;torch</title><style>.edge>path:hover{stroke-width:8}</style>
<path fill="none" stroke="black" d="M669.09,-457.47C674.33,-442.57 682.09,-420.53 688.27,-402.98"/>
<polygon fill="#47c278" stroke="black" points="691.54,-404.23 691.56,-393.63 684.94,-401.9 691.54,-404.23"/>
</g>
<!-- torch_amp&#45;&gt;triune_trainer_evaluation -->
<g id="edge16" class="edge">
<title>torch_amp&#45;&gt;triune_trainer_evaluation</title><style>.edge>path:hover{stroke-width:8}</style>
<path fill="none" stroke="black" d="M649.89,-457.97C607.96,-406.25 477.56,-245.4 418.16,-172.13"/>
<polygon fill="#47c278" stroke="black" points="420.91,-169.97 411.9,-164.41 415.48,-174.38 420.91,-169.97"/>
</g>
<!-- torch_nn -->
<g id="node9" class="node">
<title>torch_nn</title><style>.edge>path:hover{stroke-width:8}</style>
<polygon fill="blue" stroke="black" points="416.02,-493.33 360.27,-493.33 360.27,-457.33 416.02,-457.33 416.02,-493.33"/>
<text xml:space="preserve" text-anchor="middle" x="388.15" y="-472.21" font-family="Helvetica,sans-Serif" font-size="10.00" fill="white">torch.nn</text>
</g>
<!-- torch_nn&#45;&gt;torch -->
<g id="edge17" class="edge">
<title>torch_nn&#45;&gt;torch</title><style>.edge>path:hover{stroke-width:8}</style>
<path fill="none" stroke="black" d="M416.48,-465.25C472.46,-447.3 597.25,-407.28 660.24,-387.08"/>
<polygon fill="blue" stroke="black" points="660.99,-390.52 669.44,-384.13 658.85,-383.85 660.99,-390.52"/>
</g>
<!-- torch_nn&#45;&gt;triune_optim_centroid -->
<g id="edge18" class="edge">
<title>torch_nn&#45;&gt;triune_optim_centroid</title><style>.edge>path:hover{stroke-width:8}</style>
<path fill="none" stroke="black" d="M391.87,-456.95C400.47,-413.07 418.77,-294.85 388.15,-203.81"/>
<path fill="none" stroke="black" d="M388.15,-202.81C375.92,-175.46 356.32,-183.07 331.15,-166.81 328.48,-165.09 325.72,-163.3 322.95,-161.49"/>
<polygon fill="blue" stroke="black" points="325.11,-158.72 314.82,-156.16 321.27,-164.57 325.11,-158.72"/>
</g>
<!-- torch_nn&#45;&gt;triune_trainer_evaluation -->
<g id="edge19" class="edge">
<title>torch_nn&#45;&gt;triune_trainer_evaluation</title><style>.edge>path:hover{stroke-width:8}</style>
<path fill="none" stroke="black" d="M388.15,-202.81C385.58,-195.17 384.38,-186.75 384.02,-178.53"/>
<polygon fill="blue" stroke="black" points="387.52,-178.64 383.99,-168.65 380.52,-178.66 387.52,-178.64"/>
</g>
<!-- torch_nn_functional -->
<g id="node10" class="node">
<title>torch_nn_functional</title><style>.edge>path:hover{stroke-width:8}</style>
<polygon fill="blue" stroke="black" points="420.52,-599.87 355.77,-599.87 355.77,-553.62 420.52,-553.62 420.52,-599.87"/>
<text xml:space="preserve" text-anchor="middle" x="388.15" y="-586.37" font-family="Helvetica,sans-Serif" font-size="10.00" fill="white">torch.</text>
<text xml:space="preserve" text-anchor="middle" x="388.15" y="-573.62" font-family="Helvetica,sans-Serif" font-size="10.00" fill="white">nn.</text>
<text xml:space="preserve" text-anchor="middle" x="388.15" y="-560.87" font-family="Helvetica,sans-Serif" font-size="10.00" fill="white">functional</text>
</g>
<!-- torch_nn_functional&#45;&gt;torch_nn -->
<g id="edge20" class="edge">
<title>torch_nn_functional&#45;&gt;torch_nn</title><style>.edge>path:hover{stroke-width:8}</style>
<path fill="none" stroke="black" d="M388.15,-553.18C388.15,-538.9 388.15,-520.3 388.15,-504.98"/>
<polygon fill="blue" stroke="black" points="391.65,-505.05 388.15,-495.05 384.65,-505.05 391.65,-505.05"/>
</g>
<!-- torch_nn_functional&#45;&gt;triune_optim_centroid -->
<g id="edge21" class="edge">
<title>torch_nn_functional&#45;&gt;triune_optim_centroid</title><style>.edge>path:hover{stroke-width:8}</style>
<path fill="none" stroke="black" d="M373.14,-553.18C365.37,-540.44 356.42,-523.93 351.15,-508.04 308.16,-378.43 275.54,-336.42 308.15,-203.81"/>
</g>
<!-- torch_utils -->
<g id="node11" class="node">
<title>torch_utils</title><style>.edge>path:hover{stroke-width:8}</style>
<polygon fill="blue" stroke="black" points="864.52,-493.33 799.77,-493.33 799.77,-457.33 864.52,-457.33 864.52,-493.33"/>
<text xml:space="preserve" text-anchor="middle" x="832.15" y="-472.21" font-family="Helvetica,sans-Serif" font-size="10.00" fill="white">torch.utils</text>
</g>
<!-- torch_utils&#45;&gt;torch -->
<g id="edge22" class="edge">
<title>torch_utils&#45;&gt;torch</title><style>.edge>path:hover{stroke-width:8}</style>
<path fill="none" stroke="black" d="M808.81,-457.02C787.23,-441.01 754.94,-417.06 730.81,-399.15"/>
<polygon fill="blue" stroke="black" points="733,-396.43 722.89,-393.28 728.83,-402.05 733,-396.43"/>
</g>
<!-- torch_utils&#45;&gt;triune_data_dataset -->
<g id="edge23" class="edge">
<title>torch_utils&#45;&gt;triune_data_dataset</title><style>.edge>path:hover{stroke-width:8}</style>
<path fill="none" stroke="black" d="M830.65,-456.99C829.28,-437.06 828.02,-403.45 832.15,-374.93"/>
</g>
<!-- torch_utils_data -->
<g id="node12" class="node">
<title>torch_utils_data</title><style>.edge>path:hover{stroke-width:8}</style>
<polygon fill="blue" stroke="black" points="859.15,-599.87 805.15,-599.87 805.15,-553.62 859.15,-553.62 859.15,-599.87"/>
<text xml:space="preserve" text-anchor="middle" x="832.15" y="-586.37" font-family="Helvetica,sans-Serif" font-size="10.00" fill="white">torch.</text>
<text xml:space="preserve" text-anchor="middle" x="832.15" y="-573.62" font-family="Helvetica,sans-Serif" font-size="10.00" fill="white">utils.</text>
<text xml:space="preserve" text-anchor="middle" x="832.15" y="-560.87" font-family="Helvetica,sans-Serif" font-size="10.00" fill="white">data</text>
</g>
<!-- torch_utils_data&#45;&gt;torch_utils -->
<g id="edge24" class="edge">
<title>torch_utils_data&#45;&gt;torch_utils</title><style>.edge>path:hover{stroke-width:8}</style>
<path fill="none" stroke="black" d="M832.15,-553.18C832.15,-538.9 832.15,-520.3 832.15,-504.98"/>
<polygon fill="blue" stroke="black" points="835.65,-505.05 832.15,-495.05 828.65,-505.05 835.65,-505.05"/>
</g>
<!-- torch_utils_data&#45;&gt;triune_data_dataset -->
<g id="edge25" class="edge">
<title>torch_utils_data&#45;&gt;triune_data_dataset</title><style>.edge>path:hover{stroke-width:8}</style>
<path fill="none" stroke="black" d="M814.34,-553.39C805.49,-540.85 795.73,-524.45 791.15,-508.04 783.33,-480.04 783.33,-470.63 791.15,-442.63 800.61,-408.75 827.11,-409.74 832.15,-374.93"/>
<path fill="none" stroke="black" d="M832.15,-372.93C839.77,-301.77 866.28,-222.49 883.86,-175.8"/>
<polygon fill="blue" stroke="black" points="887.06,-177.23 887.36,-166.64 880.52,-174.73 887.06,-177.23"/>
</g>
<!-- tqdm -->
<g id="node13" class="node">
<title>tqdm</title><style>.edge>path:hover{stroke-width:8}</style>
<ellipse fill="#537bb6" stroke="black" cx="1431.15" cy="-373.93" rx="27" ry="18"/>
<text xml:space="preserve" text-anchor="middle" x="1431.15" y="-370.8" font-family="Helvetica,sans-Serif" font-size="10.00" fill="#ffffff">tqdm</text>
</g>
<!-- tqdm&#45;&gt;triune_data_tokenizer -->
<g id="edge26" class="edge">
<title>tqdm&#45;&gt;triune_data_tokenizer</title><style>.edge>path:hover{stroke-width:8}</style>
<path fill="none" stroke="black" d="M1432.51,-355.6C1433.76,-335.69 1434.91,-302.09 1431.15,-273.52"/>
</g>
<!-- triune -->
<g id="node14" class="node">
<title>triune</title><style>.edge>path:hover{stroke-width:8}</style>
<ellipse fill="#ae24d0" stroke="black" cx="1779.15" cy="-272.52" rx="27.23" ry="18"/>
<text xml:space="preserve" text-anchor="middle" x="1779.15" y="-269.39" font-family="Helvetica,sans-Serif" font-size="10.00" fill="#ffffff">triune</text>
</g>
<!-- triune_model -->
<g id="node18" class="node">
<title>triune_model</title><style>.edge>path:hover{stroke-width:8}</style>
<ellipse fill="#a02fbc" stroke="black" cx="157.15" cy="-272.52" rx="47.88" ry="18"/>
<text xml:space="preserve" text-anchor="middle" x="157.15" y="-269.39" font-family="Helvetica,sans-Serif" font-size="10.00" fill="#ffffff">triune.model</text>
</g>
<!-- triune_model&#45;&gt;triune_optim_centroid -->
<g id="edge27" class="edge">
<title>triune_model&#45;&gt;triune_optim_centroid</title><style>.edge>path:hover{stroke-width:8}</style>
<path fill="none" stroke="black" d="M204.15,-268.41C244.4,-262.76 297.52,-247.06 308.15,-203.81"/>
<path fill="none" stroke="black" d="M308.15,-202.81C310.49,-193.28 309.06,-183.24 305.94,-173.9"/>
<polygon fill="#a02fbc" stroke="black" points="309.22,-172.67 302.21,-164.73 302.74,-175.31 309.22,-172.67"/>
</g>
<!-- triune_model_factory -->
<g id="node19" class="node">
<title>triune_model_factory</title><style>.edge>path:hover{stroke-width:8}</style>
<ellipse fill="#9246a4" stroke="black" cx="52.15" cy="-272.52" rx="35.71" ry="32.7"/>
<text xml:space="preserve" text-anchor="middle" x="52.15" y="-282.14" font-family="Helvetica,sans-Serif" font-size="10.00" fill="#ffffff">triune.</text>
<text xml:space="preserve" text-anchor="middle" x="52.15" y="-269.39" font-family="Helvetica,sans-Serif" font-size="10.00" fill="#ffffff">model.</text>
<text xml:space="preserve" text-anchor="middle" x="52.15" y="-256.64" font-family="Helvetica,sans-Serif" font-size="10.00" fill="#ffffff">factory</text>
</g>
<!-- triune_model_fp4 -->
<g id="node20" class="node">
<title>triune_model_fp4</title><style>.edge>path:hover{stroke-width:8}</style>
<ellipse fill="#a947c2" stroke="black" cx="157.15" cy="-373.93" rx="35.18" ry="32.7"/>
<text xml:space="preserve" text-anchor="middle" x="157.15" y="-383.55" font-family="Helvetica,sans-Serif" font-size="10.00" fill="#ffffff">triune.</text>
<text xml:space="preserve" text-anchor="middle" x="157.15" y="-370.8" font-family="Helvetica,sans-Serif" font-size="10.00" fill="#ffffff">model.</text>
<text xml:space="preserve" text-anchor="middle" x="157.15" y="-358.05" font-family="Helvetica,sans-Serif" font-size="10.00" fill="#ffffff">fp4</text>
</g>
<!-- triune_model_fp4&#45;&gt;triune_model -->
<g id="edge28" class="edge">
<title>triune_model_fp4&#45;&gt;triune_model</title><style>.edge>path:hover{stroke-width:8}</style>
<path fill="none" stroke="black" d="M157.15,-340.93C157.15,-328.5 157.15,-314.37 157.15,-302.27"/>
<polygon fill="#a947c2" stroke="black" points="160.65,-302.49 157.15,-292.49 153.65,-302.49 160.65,-302.49"/>
</g>
<!-- triune_model_moe -->
<g id="node21" class="node">
<title>triune_model_moe</title><style>.edge>path:hover{stroke-width:8}</style>
<ellipse fill="#a947c2" stroke="black" cx="245.15" cy="-373.93" rx="35.18" ry="32.7"/>
<text xml:space="preserve" text-anchor="middle" x="245.15" y="-383.55" font-family="Helvetica,sans-Serif" font-size="10.00" fill="#ffffff">triune.</text>
<text xml:space="preserve" text-anchor="middle" x="245.15" y="-370.8" font-family="Helvetica,sans-Serif" font-size="10.00" fill="#ffffff">model.</text>
<text xml:space="preserve" text-anchor="middle" x="245.15" y="-358.05" font-family="Helvetica,sans-Serif" font-size="10.00" fill="#ffffff">moe</text>
</g>
<!-- triune_model_moe&#45;&gt;triune_model -->
<g id="edge29" class="edge">
<title>triune_model_moe&#45;&gt;triune_model</title><style>.edge>path:hover{stroke-width:8}</style>
<path fill="none" stroke="black" d="M223.17,-348.1C209.72,-332.91 192.58,-313.54 179.13,-298.35"/>
<polygon fill="#a947c2" stroke="black" points="181.95,-296.25 172.7,-291.08 176.71,-300.89 181.95,-296.25"/>
</g>
<!-- triune_model_transformer -->
<g id="node22" class="node">
<title>triune_model_transformer</title><style>.edge>path:hover{stroke-width:8}</style>
<ellipse fill="#b13bce" stroke="black" cx="52.15" cy="-373.93" rx="52.15" ry="32.7"/>
<text xml:space="preserve" text-anchor="middle" x="52.15" y="-383.55" font-family="Helvetica,sans-Serif" font-size="10.00" fill="#ffffff">triune.</text>
<text xml:space="preserve" text-anchor="middle" x="52.15" y="-370.8" font-family="Helvetica,sans-Serif" font-size="10.00" fill="#ffffff">model.</text>
<text xml:space="preserve" text-anchor="middle" x="52.15" y="-358.05" font-family="Helvetica,sans-Serif" font-size="10.00" fill="#ffffff">transformer</text>
</g>
<!-- triune_model_transformer&#45;&gt;triune_model -->
<g id="edge30" class="edge">
<title>triune_model_transformer&#45;&gt;triune_model</title><style>.edge>path:hover{stroke-width:8}</style>
<path fill="none" stroke="black" d="M80.56,-346.02C96.65,-330.79 116.6,-311.91 132.1,-297.23"/>
<polygon fill="#b13bce" stroke="black" points="134.25,-300.02 139.1,-290.6 129.44,-294.94 134.25,-300.02"/>
</g>
<!-- triune_model_transformer&#45;&gt;triune_model_factory -->
<g id="edge31" class="edge">
<title>triune_model_transformer&#45;&gt;triune_model_factory</title><style>.edge>path:hover{stroke-width:8}</style>
<path fill="none" stroke="black" d="M52.15,-340.93C52.15,-333.21 52.15,-324.84 52.15,-316.71"/>
<polygon fill="#b13bce" stroke="black" points="55.65,-316.97 52.15,-306.97 48.65,-316.97 55.65,-316.97"/>
</g>
<!-- triune_optim -->
<g id="node23" class="node">
<title>triune_optim</title><style>.edge>path:hover{stroke-width:8}</style>
<ellipse fill="#9e4cb3" stroke="black" cx="233.15" cy="-32.7" rx="46.5" ry="18"/>
<text xml:space="preserve" text-anchor="middle" x="233.15" y="-29.58" font-family="Helvetica,sans-Serif" font-size="10.00" fill="#ffffff">triune.optim</text>
</g>
<!-- triune_optim_centroid&#45;&gt;triune_optim -->
<g id="edge32" class="edge">
<title>triune_optim_centroid&#45;&gt;triune_optim</title><style>.edge>path:hover{stroke-width:8}</style>
<path fill="none" stroke="black" d="M268.28,-103.55C261.47,-90.01 253.45,-74.06 246.79,-60.82"/>
<polygon fill="#922bac" stroke="black" points="250.09,-59.6 242.47,-52.23 243.84,-62.74 250.09,-59.6"/>
</g>
<!-- triune_optim_factory -->
<g id="node25" class="node">
<title>triune_optim_factory</title><style>.edge>path:hover{stroke-width:8}</style>
<ellipse fill="#9e4cb3" stroke="black" cx="333.15" cy="-32.7" rx="35.71" ry="32.7"/>
<text xml:space="preserve" text-anchor="middle" x="333.15" y="-42.33" font-family="Helvetica,sans-Serif" font-size="10.00" fill="#ffffff">triune.</text>
<text xml:space="preserve" text-anchor="middle" x="333.15" y="-29.58" font-family="Helvetica,sans-Serif" font-size="10.00" fill="#ffffff">optim.</text>
<text xml:space="preserve" text-anchor="middle" x="333.15" y="-16.83" font-family="Helvetica,sans-Serif" font-size="10.00" fill="#ffffff">factory</text>
</g>
<!-- triune_optim_centroid&#45;&gt;triune_optim_factory -->
<g id="edge33" class="edge">
<title>triune_optim_centroid&#45;&gt;triune_optim_factory</title><style>.edge>path:hover{stroke-width:8}</style>
<path fill="none" stroke="black" d="M298.02,-103.55C302.8,-94.04 308.18,-83.34 313.27,-73.23"/>
<polygon fill="#922bac" stroke="black" points="316.38,-74.83 317.75,-64.33 310.13,-71.69 316.38,-74.83"/>
</g>
<!-- triune_recipes -->
<g id="node26" class="node">
<title>triune_recipes</title><style>.edge>path:hover{stroke-width:8}</style>
<ellipse fill="#9e4cb3" stroke="black" cx="1909.15" cy="-475.33" rx="50.63" ry="18"/>
<text xml:space="preserve" text-anchor="middle" x="1909.15" y="-472.21" font-family="Helvetica,sans-Serif" font-size="10.00" fill="#ffffff">triune.recipes</text>
</g>
<!-- triune_recipes_nvfp4 -->
<g id="node27" class="node">
<title>triune_recipes_nvfp4</title><style>.edge>path:hover{stroke-width:8}</style>
<ellipse fill="#a947c2" stroke="black" cx="1909.15" cy="-576.74" rx="38.36" ry="32.7"/>
<text xml:space="preserve" text-anchor="middle" x="1909.15" y="-586.37" font-family="Helvetica,sans-Serif" font-size="10.00" fill="#ffffff">triune.</text>
<text xml:space="preserve" text-anchor="middle" x="1909.15" y="-573.62" font-family="Helvetica,sans-Serif" font-size="10.00" fill="#ffffff">recipes.</text>
<text xml:space="preserve" text-anchor="middle" x="1909.15" y="-560.87" font-family="Helvetica,sans-Serif" font-size="10.00" fill="#ffffff">nvfp4</text>
</g>
<!-- triune_recipes_nvfp4&#45;&gt;triune_recipes -->
<g id="edge34" class="edge">
<title>triune_recipes_nvfp4&#45;&gt;triune_recipes</title><style>.edge>path:hover{stroke-width:8}</style>
<path fill="none" stroke="black" d="M1909.15,-543.74C1909.15,-531.31 1909.15,-517.18 1909.15,-505.08"/>
<polygon fill="#a947c2" stroke="black" points="1912.65,-505.31 1909.15,-495.31 1905.65,-505.31 1912.65,-505.31"/>
</g>
<!-- triune_trainer -->
<g id="node28" class="node">
<title>triune_trainer</title><style>.edge>path:hover{stroke-width:8}</style>
<ellipse fill="#9f3db8" stroke="black" cx="1741.15" cy="-373.93" rx="48.8" ry="18"/>
<text xml:space="preserve" text-anchor="middle" x="1741.15" y="-370.8" font-family="Helvetica,sans-Serif" font-size="10.00" fill="#ffffff">triune.trainer</text>
</g>
<!-- triune_trainer&#45;&gt;triune -->
<g id="edge35" class="edge">
<title>triune_trainer&#45;&gt;triune</title><style>.edge>path:hover{stroke-width:8}</style>
<path fill="none" stroke="black" d="M1747.77,-355.61C1753.52,-340.55 1761.97,-318.47 1768.64,-301"/>
<polygon fill="#9f3db8" stroke="black" points="1771.89,-302.31 1772.19,-291.72 1765.35,-299.81 1771.89,-302.31"/>
</g>
<!-- triune_trainer_engine -->
<g id="node30" class="node">
<title>triune_trainer_engine</title><style>.edge>path:hover{stroke-width:8}</style>
<ellipse fill="#b13bce" stroke="black" cx="1773.15" cy="-576.74" rx="35.71" ry="32.7"/>
<text xml:space="preserve" text-anchor="middle" x="1773.15" y="-586.37" font-family="Helvetica,sans-Serif" font-size="10.00" fill="#ffffff">triune.</text>
<text xml:space="preserve" text-anchor="middle" x="1773.15" y="-573.62" font-family="Helvetica,sans-Serif" font-size="10.00" fill="#ffffff">trainer.</text>
<text xml:space="preserve" text-anchor="middle" x="1773.15" y="-560.87" font-family="Helvetica,sans-Serif" font-size="10.00" fill="#ffffff">engine</text>
</g>
<!-- triune_trainer_engine&#45;&gt;triune_trainer -->
<g id="edge36" class="edge">
<title>triune_trainer_engine&#45;&gt;triune_trainer</title><style>.edge>path:hover{stroke-width:8}</style>
<path fill="none" stroke="black" d="M1766.75,-544.11C1764.54,-532.75 1762.12,-519.84 1760.15,-508.04 1754.14,-472.1 1748.39,-430.5 1744.82,-403.5"/>
<polygon fill="#b13bce" stroke="black" points="1748.31,-403.16 1743.54,-393.7 1741.37,-404.07 1748.31,-403.16"/>
</g>
<!-- triune_trainer_trainer -->
<g id="node33" class="node">
<title>triune_trainer_trainer</title><style>.edge>path:hover{stroke-width:8}</style>
<ellipse fill="#ae33cc" stroke="black" cx="1805.15" cy="-475.33" rx="35.71" ry="32.7"/>
<text xml:space="preserve" text-anchor="middle" x="1805.15" y="-484.96" font-family="Helvetica,sans-Serif" font-size="10.00" fill="#ffffff">triune.</text>
<text xml:space="preserve" text-anchor="middle" x="1805.15" y="-472.21" font-family="Helvetica,sans-Serif" font-size="10.00" fill="#ffffff">trainer.</text>
<text xml:space="preserve" text-anchor="middle" x="1805.15" y="-459.46" font-family="Helvetica,sans-Serif" font-size="10.00" fill="#ffffff">trainer</text>
</g>
<!-- triune_trainer_engine&#45;&gt;triune_trainer_trainer -->
<g id="edge37" class="edge">
<title>triune_trainer_engine&#45;&gt;triune_trainer_trainer</title><style>.edge>path:hover{stroke-width:8}</style>
<path fill="none" stroke="black" d="M1783.1,-544.83C1785.84,-536.32 1788.85,-526.95 1791.75,-517.95"/>
<polygon fill="#b13bce" stroke="black" points="1795.01,-519.25 1794.74,-508.66 1788.35,-517.11 1795.01,-519.25"/>
</g>
<!-- triune_trainer_trainer&#45;&gt;triune -->
<g id="edge38" class="edge">
<title>triune_trainer_trainer&#45;&gt;triune</title><style>.edge>path:hover{stroke-width:8}</style>
<path fill="none" stroke="black" d="M1805.87,-442.37C1805.96,-415.26 1804.89,-375.44 1799.15,-341.22 1796.91,-327.85 1792.87,-313.39 1789,-301.28"/>
<polygon fill="#ae33cc" stroke="black" points="1792.37,-300.32 1785.89,-291.94 1785.73,-302.53 1792.37,-300.32"/>
</g>
<!-- triune_trainer_trainer&#45;&gt;triune_trainer -->
<g id="edge39" class="edge">
<title>triune_trainer_trainer&#45;&gt;triune_trainer</title><style>.edge>path:hover{stroke-width:8}</style>
<path fill="none" stroke="black" d="M1787.32,-446.64C1778.21,-432.5 1767.19,-415.37 1758.19,-401.4"/>
<polygon fill="#ae33cc" stroke="black" points="1761.24,-399.66 1752.88,-393.15 1755.35,-403.45 1761.24,-399.66"/>
</g>
</g>
</svg>
